<?xml version="1.0" encoding="UTF-8"?>
<svg width="800px" height="240px" viewBox="0 0 800 240" version="1.1" xmlns="http://www.w3.org/2000/svg" xmlns:xlink="http://www.w3.org/1999/xlink">
    <!-- Generator: Sketch 52.6 (67491) - http://www.bohemiancoding.com/sketch -->
    <title>readme_logo</title>
    <desc>Created with Sketch.</desc>
    <g id="readme_logo" stroke="none" stroke-width="1" fill="none" fill-rule="evenodd">
        <g id="Group" transform="translate(127.000000, 46.000000)" fill="#272A29">
            <path d="M295.499186,0 C300.192378,0 304,3.80762233 304,8.50081394 C304,13.1940056 300.192378,17 295.499186,17 C290.805994,17 287,13.1940056 287,8.50081394 C287,3.80762233 290.805994,0 295.499186,0" id="Fill-4"></path>
            <path d="M121,63.9353226 C121,51.0796762 118.892069,41.5404333 114.676206,35.32426 C110.458648,29.1064201 103.970358,26 95.2113355,26 C81.1528079,26 69.9076817,34.0226966 61.4725652,50.0680898 C60.6059901,42.7353385 57.9045143,36.8924689 53.3647461,32.5344814 C48.8215862,28.1781605 42.9828033,26 35.8467015,26 C29.1413435,26 22.9515214,27.9681771 17.2738434,31.8961987 C11.5978613,35.8292199 6.91903407,41.4087771 3.24584098,48.6332037 L3.24584098,27.2748988 L0,27.2748988 L0,110 L3.24584098,110 L3.24584098,57.7191493 C4.43293016,53.4694865 6.10842175,49.5897945 8.27231573,46.0834061 C10.4345139,42.5753512 12.9494471,39.5739227 15.8154195,37.0774542 C18.6796962,34.5809856 21.8695744,32.6411396 25.3850542,31.2595826 C28.8971423,29.8796921 32.6025564,29.1880803 36.494513,29.1880803 C44.2801222,29.1880803 49.9578002,31.9778589 53.5258511,37.5557495 C57.093902,43.1353067 58.8779274,51.9279422 58.8779274,63.9353226 L58.8779274,110 L62.1220726,110 L62.1220726,57.8791366 C63.2023237,53.7344655 64.7981107,49.9097691 66.9077378,46.4017141 C69.015669,42.8953258 71.5017729,39.8672328 74.3677454,37.3157686 C77.232022,34.765971 80.423596,32.7727958 83.93738,31.3395762 C87.451164,29.9046901 91.2091491,29.1880803 95.2113355,29.1880803 C102.996945,29.1880803 108.698364,32.0028569 112.324074,37.6357432 C115.944696,43.2686295 117.757551,52.0346004 117.757551,63.9353226 L117.757551,110 L121,110 L121,63.9353226" id="Fill-5"></path>
            <path d="M146.844544,104.102654 C144.193606,103.093381 141.897145,101.710428 139.951767,99.9554624 C138.006389,98.2004966 136.490114,96.1002095 135.409726,93.6512647 C134.327641,91.2056564 133.786599,88.6015673 133.786599,85.8339929 C133.786599,83.0680866 134.46163,80.544072 135.815083,78.2552762 C137.165145,75.9698169 139.085082,74.0280106 141.574894,72.4331937 C144.059618,70.8333721 147.032806,69.5855447 150.496155,68.6813703 C153.954416,67.7788641 157.795985,67.3251086 162.01408,67.3251086 C166.556121,67.3251086 170.935341,67.6987896 175.151739,68.442815 C179.371529,69.1868405 183.426802,70.3045469 187.319254,71.7925978 L187.319254,86.4729205 C187.319254,88.4948014 186.452568,90.62178 184.724286,92.8555245 C181.910527,96.684086 177.884087,99.7702902 172.639878,102.110801 C167.392277,104.449643 161.634163,105.619064 155.362143,105.619064 C152.332985,105.619064 149.493785,105.115262 146.844544,104.102654 Z M173.369183,108.012958 C179.424107,105.355486 184.400339,101.525256 188.292791,96.523937 L188.292791,103.38532 C188.506494,105.4072 189.266327,107.133807 190.563811,108.571811 C191.861295,110.006479 193.589577,110.725481 195.755442,110.725481 C196.186241,110.725481 196.700146,110.697121 197.295462,110.645407 C197.889083,110.592024 198.457262,110.511949 199,110.405183 L199,103.226839 C196.620432,103.226839 195.429799,101.897269 195.429799,99.2381285 L195.429799,58.7104283 C195.429799,48.4975947 192.510885,40.4951505 186.669664,34.696423 C180.830139,28.901032 172.826445,26 162.661973,26 C152.928301,26 142.653586,29.6183659 131.841221,36.8484249 L134.922957,42.2734714 C139.680398,39.0838377 144.358124,36.6365611 148.954439,34.9349783 C153.550754,33.2350636 157.902837,32.3842722 162.01408,32.3842722 C169.798982,32.3842722 175.965847,34.696423 180.507888,39.3223929 C185.048233,43.950031 187.319254,50.2008457 187.319254,58.0715006 L187.319254,66.2090705 C183.640506,64.8277855 179.505518,63.7351024 174.909203,62.937694 C170.311192,62.1419538 165.745406,61.7415813 161.201668,61.7415813 C156.010037,61.7415813 151.2509,62.3554857 146.92765,63.5749534 C142.601008,64.7994258 138.896819,66.5026769 135.815083,68.6813703 C132.733347,70.8634001 130.324946,73.4441341 128.596664,76.4202359 C126.864989,79.3980059 126,82.6994103 126,86.3127716 C126,89.9311375 126.702168,93.3076117 128.109895,96.4438625 C129.514231,99.5851179 131.488441,102.295973 134.030831,104.581432 C136.569829,106.870228 139.517576,108.678577 142.870681,110.006479 C146.222091,111.336049 149.846565,112 153.740712,112 C160.769174,112 167.310866,110.67043 173.369183,108.012958 Z" id="Fill-6"></path>
            <path d="M205.416234,112 C205.416234,112 217.490419,110.871421 222.710398,108.615946 C227.932082,106.360472 232.418535,103.271196 236.17146,99.3531724 C239.92268,95.4317799 242.834609,90.8382931 244.898719,85.5777653 C246.96624,80.3138686 248,74.7282426 248,68.8225716 C248,62.8057271 246.940651,57.1661988 244.818542,51.905671 C242.698139,46.6417743 239.735034,41.9977541 235.92752,37.968557 C232.120006,33.9427288 227.60626,30.7725997 222.38287,28.4649074 C217.164597,26.157215 205.25247,25 205.25247,25 L205,34.6653565 C205,34.6653565 213.981434,35.5530601 217.73436,37.3250983 C221.487285,39.0971364 224.776213,41.5143178 227.60626,44.5749579 C230.434601,47.635598 232.664181,51.2622122 234.294997,55.4497473 C235.92752,59.6389669 236.741223,64.094329 236.741223,68.8225716 C236.741223,73.6552499 235.953108,78.110612 234.375174,82.192027 C232.800651,86.2751263 230.622248,89.7905671 227.8502,92.7467715 C225.076447,95.699607 221.813107,98.0342504 218.060182,99.7540707 C214.308962,101.472207 205.533939,102.332959 205.533939,102.332959 L205.416234,112" id="Fill-7"></path>
            <path d="M281.953941,25 C281.953941,25 269.511287,26.126895 264.289602,28.3823695 C259.067918,30.6395284 254.581465,33.7271196 250.82854,37.6468276 C247.07732,41.5682201 244.165391,46.1600225 242.099576,51.4205503 C240.032055,56.6844469 239,62.270073 239,68.1774284 C239,74.1942729 240.061054,79.8321168 242.181458,85.0926446 C244.303566,90.3565413 247.264966,95.0005615 251.074186,99.0297586 C254.879994,103.055587 259.395446,106.2274 264.615424,108.535093 C269.837109,110.842785 281.74753,112 281.74753,112 L282,102.332959 C282,102.332959 273.018566,101.445255 269.267346,99.6749017 C265.514421,97.9011791 262.222081,95.4839978 259.395446,92.4233577 C256.565399,89.3627176 254.337525,85.7377878 252.706708,81.5485682 C251.074186,77.3593487 250.257071,72.9039865 250.257071,68.1774284 C250.257071,63.3430657 251.046892,58.8877035 252.623121,54.8046042 C254.199349,50.7248737 256.376046,47.2077485 259.1498,44.2515441 C261.925259,41.2987086 265.186893,38.9640651 268.939818,37.2442448 C272.692744,35.5261089 281.836236,34.667041 281.836236,34.667041 L281.953941,25" id="Fill-8"></path>
            <polygon id="Fill-9" points="289 111 303 111 303 28 289 28"></polygon>
            <path d="M358.199215,94.5643237 C357.099215,95.0973557 355.393093,95.7869657 353.080848,96.6331539 C350.768603,97.4860049 348.344113,97.9107647 345.814286,97.9107647 C343.279278,97.9107647 341.16044,97.2478063 339.454317,95.918558 C337.748195,94.5909753 336.782889,92.4421904 336.565306,89.4655403 L336.565306,42.9451798 L355.393093,42.9451798 L355.393093,29.4028377 L336.565306,29.4028377 L336.565306,2 L318.397174,2 L318.397174,29.4028377 L307,29.4028377 L307,42.9451798 L318.397174,42.9451798 L318.397174,95.0423867 C318.397174,98.4404652 318.946311,101.335495 320.048038,103.722478 C321.146311,106.114459 322.660754,108.053363 324.589639,109.540855 C326.515071,111.028347 328.744427,112.144383 331.279435,112.883964 C333.809262,113.628543 336.506593,114 339.371429,114 C343.997645,114 348.344113,113.335376 352.421193,112.009459 C356.493093,110.683542 359.687755,109.485886 362,108.426485 L358.199215,94.5643237" id="Fill-10"></path>
            <path d="M406.029437,110.062185 C411.818129,107.436975 416.662976,103.337815 420.560582,97.7630252 L421.047783,102.907563 C422.346419,110.087395 427.64791,113.677311 436.959046,113.677311 C438.364629,113.677311 439.934875,113.596639 441.66639,113.436975 C443.397905,113.27563 445.507977,112.92605 448,112.393277 L448,90.6890756 C445.942553,90.4756303 444.509809,89.8621849 443.696676,88.8420168 C442.885241,87.8252101 442.479523,86.0302521 442.479523,83.4571429 L442.479523,28 L416.501707,28 L416.501707,80.0823529 C414.009684,84.5815126 411.144196,87.7445378 407.896757,89.5663866 C404.649318,91.3882353 401.293235,92.297479 397.828507,92.297479 C394.039546,92.297479 391.116341,90.9310924 389.062289,88.2 C387.003144,85.4655462 385.977816,81.5260504 385.977816,76.3848739 L385.977816,28 L360,28 L360,82.010084 C360,92.5142857 362.242482,100.472269 366.73763,105.880672 C371.227686,111.294118 377.858369,114 386.624588,114 C393.767935,114 400.23735,112.685714 406.029437,110.062185" id="Fill-11"></path>
            <path d="M488.965974,86.1565907 C486.008502,83.700945 483.760754,80.6054244 482.227886,76.8633286 L482.227886,62.2852357 C486.280019,56.5196611 491.212004,53.6335236 497.020404,53.6335236 C502.170634,53.6335236 506.306972,55.2365611 509.431135,58.4392859 C512.55358,61.6436857 514.113943,65.9184522 514.113943,71.2568852 C514.113943,73.8214101 513.703231,76.2234537 512.881806,78.4663661 C512.058663,80.7092785 510.962284,82.6875305 509.594389,84.394422 C508.223056,86.1046637 506.578488,87.4396907 504.662404,88.4011781 C502.7446,89.3609905 500.636048,89.8417343 498.336746,89.8417343 C495.04761,89.8417343 491.925166,88.6155865 488.965974,86.1565907 Z M523.811222,112.19213 C528.303281,110.004495 532.195597,106.93075 535.483014,102.979271 C538.768713,99.0294672 541.34125,94.3560351 543.2075,88.9606499 C545.068594,83.5669398 546,77.720962 546,71.4176915 C546,65.2233002 544.986108,59.4577255 542.960041,54.1142674 C540.932256,48.7758344 538.165533,44.1811304 534.659871,40.3368556 C531.150772,36.4909058 526.933667,33.4757883 522.005119,31.284803 C517.073134,29.0971677 511.756214,28 506.06295,28 C499.488115,28 493.95295,29.231173 489.460891,31.6868186 C484.965396,34.1424643 481.18478,37.6684767 478.119044,42.2581555 L478.119044,29.6030375 L451,29.6030375 L451,148 L482.227886,148 L482.227886,101.376234 C484.747151,105.970938 488.309522,109.466799 492.909844,111.872193 C497.513603,114.275911 502.938787,115.475258 509.183676,115.475258 C514.443888,115.475258 519.317445,114.379765 523.811222,112.19213 Z" id="Fill-12"></path>
        </g>
    </g>
</svg>