<?xml version="1.0" encoding="UTF-8"?>
<svg width="46px" height="46px" viewBox="0 0 46 46" version="1.1" xmlns="http://www.w3.org/2000/svg" xmlns:xlink="http://www.w3.org/1999/xlink">
    <!-- Generator: Sketch 52.5 (67469) - http://www.bohemiancoding.com/sketch -->
    <title>browsers</title>
    <desc>Created with Sketch.</desc>
    <g id="browsers" stroke="none" stroke-width="1" fill="none" fill-rule="evenodd">
        <path d="M15.8249678,18.5848198 L12.7367769,9.44737031 C15.5891505,7.28401945 19.1444627,6 22.9995299,6 C29.3272935,6 34.8468095,9.45696097 37.7742159,14.5849525 L23.4006449,14.5849525 C23.2676921,14.5791229 23.1339871,14.5755499 22.9995299,14.5755499 C19.9666263,14.5755499 17.3081344,16.1790698 15.8249678,18.5848198 Z M31.4244501,22.9995299 C31.4244501,25.8402442 30.0178207,28.3503631 27.8640605,29.8767817 L17.1934226,38.9818862 C19.0049281,39.6400684 20.9604814,40 22.9995299,40 C32.3889691,40 40,32.3889691 40,22.9995299 C40,21.1096067 39.6906544,19.2922716 39.1214208,17.5937854 L29.4602463,17.5937854 C30.6855936,19.0572065 31.4244501,20.9420523 31.4244501,22.9995299 Z M14.2229523,37.5611529 L21.5605555,31.2995835 C18.2483946,30.7288455 15.5987412,28.2260607 14.814188,24.9917534 L10.3163589,11.6827451 C7.63229186,14.687817 6,18.6530827 6,22.9995299 C6,29.1774161 9.2952362,34.5846649 14.2229523,37.5611529 Z M22.9995299,28.2649875 C25.9077549,28.2649875 28.2649875,25.9077549 28.2649875,22.9995299 C28.2649875,20.092057 25.9077549,17.7340723 22.9995299,17.7340723 C20.0922451,17.7340723 17.7340723,20.092057 17.7340723,22.9995299 C17.7340723,25.9077549 20.0922451,28.2649875 22.9995299,28.2649875 Z" id="chrome" fill="#FFFFFF"></path>
    </g>
</svg>