<?xml version="1.0" encoding="UTF-8"?>
<svg width="46px" height="46px" viewBox="0 0 46 46" version="1.1" xmlns="http://www.w3.org/2000/svg" xmlns:xlink="http://www.w3.org/1999/xlink">
    <!-- Generator: Sketch 52.5 (67469) - http://www.bohemiancoding.com/sketch -->
    <title>password_management</title>
    <desc>Created with Sketch.</desc>
    <defs>
        <polygon id="path-1" points="0.00463917526 0.00309278351 29.9444072 0.00309278351 29.9444072 29.9444072 0.00463917526 29.9444072"></polygon>
    </defs>
    <g id="password_management" stroke="none" stroke-width="1" fill="none" fill-rule="evenodd">
        <g id="016-key-silhouette-security-tool-interface-symbol-of-password" transform="translate(8.000000, 8.000000)">
            <mask id="mask-2" fill="white">
                <use xlink:href="#path-1"></use>
            </mask>
            <g id="Clip-2"></g>
            <path d="M20.5174485,0 C15.3050258,0 11.090567,4.21453608 11.090567,9.42695876 C11.090567,10.5360309 11.3122423,11.6450258 11.6450258,12.7540979 L0,24.3991237 L0,29.9444072 L5.54528351,29.9444072 L5.54528351,26.617268 L8.87242268,26.617268 L8.87242268,23.2901289 L12.1995619,23.2901289 L17.1903093,18.2993814 C18.1885052,18.6322423 19.2975773,18.8539175 20.5174485,18.8539175 C25.7298711,18.8539175 29.9444072,14.6393814 29.9444072,9.42695876 C29.9444072,4.21453608 25.7298711,0 20.5174485,0 Z M23.2901289,9.98149485 C21.4048454,9.98149485 19.9629897,8.53956186 19.9629897,6.65427835 C19.9629897,4.76907216 21.4048454,3.32713918 23.2901289,3.32713918 C25.1754124,3.32713918 26.617268,4.76907216 26.617268,6.65427835 C26.617268,8.53956186 25.1754124,9.98149485 23.2901289,9.98149485 Z" id="Fill-1" fill="#FFFFFF" mask="url(#mask-2)"></path>
        </g>
    </g>
</svg>