<?xml version="1.0" encoding="UTF-8"?>
<svg width="46px" height="46px" viewBox="0 0 46 46" version="1.1" xmlns="http://www.w3.org/2000/svg" xmlns:xlink="http://www.w3.org/1999/xlink">
    <!-- Generator: Sketch 52.5 (67469) - http://www.bohemiancoding.com/sketch -->
    <title>proxy_and_vpn</title>
    <desc>Created with Sketch.</desc>
    <g id="proxy_and_vpn" stroke="none" stroke-width="1" fill="none" fill-rule="evenodd">
        <g id="015-virtual-private-network-vpn" transform="translate(6.000000, 6.000000)" fill="#FFFFFF">
            <path d="M23.4396,26.7181714 C22.6576,27.4273143 21.5880571,27.7274857 20.5476571,27.5341714 C17.9597714,27.0445714 13.0569714,25.9556 14.0896,24.8209714 C15.6944,23.0636571 13.2512571,21.8416 10.7313714,22.6848 C8.21148571,23.5231429 8.82251429,20.5437714 8.21148571,18.0248571 C7.60045714,15.5010857 8.51554286,14.7385143 7.36925714,13.5961143 C6.45514286,12.682 6.38228571,12.7577714 5.85868571,12.4274857 C5.4944,12.1962857 5.24377143,11.8242286 5.168,11.3987429 C5.09222857,10.9742286 5.202,10.5380571 5.46428571,10.1961143 C5.77125714,9.79782857 6.09377143,9.40342857 6.20451429,9.27422857 C7.42268571,7.89285714 10.5681714,6.90977143 10.6701714,10.5147429 C10.7352571,12.8141143 14.1051429,13.7476571 15.2048,15.1212571 C16.3054286,16.4948571 18.2181714,17.2584 18.0627429,19.1701714 C17.9112,21.0790286 20.8138286,21.5385143 20.6622857,18.7116571 C20.6622857,18.7116571 20.6622857,18.7116571 20.6622857,18.7077714 C20.6350857,18.2298286 20.4378857,17.7742286 20.1076,17.4216 C19.5082286,16.7872571 19.1439429,15.9294857 19.1439429,14.9852571 L19.1439429,8.0784 C19.1439429,7.04674286 19.7705143,5.96165714 20.2824571,5.46817143 C20.7448571,5.02034286 21.7396,4.49285714 22.6614857,4.49285714 L23.0073143,4.49285714 C20.7225143,3.16102857 18.0549714,2.35668571 15.2086857,2.35668571 C6.82234286,2.35668571 0,9.19068571 0,17.5770286 C0,25.9633714 6.82234286,32.8080571 15.2048,32.8080571 C23.2764,32.8080571 29.8976571,26.452 30.3872571,18.5591429 L27.4584,18.5591429 C27.2116571,21.7512571 25.7088571,24.6577714 23.4396,26.7181714 Z" id="Fill-1"></path>
            <path d="M32.2426857,6.68245714 L31.0284,6.68245714 L31.0284,4.27622857 C31.0284,2.36445714 29.5149143,0.785885714 27.6060571,0.785885714 L27.2378857,0.785885714 C25.3290286,0.785885714 23.8038857,2.36445714 23.8038857,4.27622857 L23.8038857,6.68245714 L22.6848,6.68245714 C21.9368,6.68245714 21.3335429,7.28571429 21.3335429,8.03371429 L21.3335429,14.9279429 C21.3335429,15.6759429 21.9368,16.2830857 22.6848,16.2830857 L32.2426857,16.2830857 C32.9906857,16.2830857 33.5939429,15.6759429 33.5939429,14.9279429 L33.5939429,8.03371429 C33.5939429,7.28571429 32.9906857,6.68245714 32.2426857,6.68245714 Z M28.8426857,6.68245714 L25.9896,6.68245714 L25.9896,4.27622857 C25.9896,3.57097143 26.5355429,2.9716 27.2378857,2.9716 L27.6060571,2.9716 C28.3084,2.9716 28.8426857,3.57097143 28.8426857,4.27622857 L28.8426857,6.68245714 Z" id="Fill-2"></path>
        </g>
    </g>
</svg>