<?xml version="1.0" encoding="UTF-8"?>
<svg width="46px" height="46px" viewBox="0 0 46 46" version="1.1" xmlns="http://www.w3.org/2000/svg" xmlns:xlink="http://www.w3.org/1999/xlink">
    <!-- Generator: Sketch 52.5 (67469) - http://www.bohemiancoding.com/sketch -->
    <title>cloud_storage</title>
    <desc>Created with Sketch.</desc>
    <g id="cloud_storage" stroke="none" stroke-width="1" fill="none" fill-rule="evenodd">
        <path d="M41,27.7997526 C41,31.6231207 37.9234251,34.7220462 34.1294601,34.7220462 L12.869672,34.7220462 C9.07570694,34.7220462 6,31.6231207 6,27.7997526 C6,24.3469059 8.50858686,21.4861339 11.7902234,20.9631726 C11.7486686,20.7206791 11.7257755,20.4711333 11.7257755,20.2146435 C11.7257755,17.7920958 13.6745116,15.8286038 16.0796997,15.8286038 C17.1519874,15.8286038 18.1348726,16.2193059 18.893058,16.8698611 C20.245054,13.8005555 21.9780958,11 26.8396831,11 C32.7354752,11 35.5301718,15.5814449 35.5301718,20.4160162 C35.5301718,20.6181483 35.5217089,20.818653 35.5081467,21.0169877 C38.6419001,21.660382 41,24.4524747 41,27.7997526 Z" id="Fill-1" fill="#FFFFFF"></path>
    </g>
</svg>