<?xml version="1.0" encoding="UTF-8"?>
<svg width="46px" height="46px" viewBox="0 0 46 46" version="1.1" xmlns="http://www.w3.org/2000/svg" xmlns:xlink="http://www.w3.org/1999/xlink">
    <!-- Generator: Sketch 52.5 (67469) - http://www.bohemiancoding.com/sketch -->
    <title>data_recovery</title>
    <desc>Created with Sketch.</desc>
    <defs>
        <polygon id="path-1" points="0.0879268293 0.00426829268 26.2867073 0.00426829268 26.2867073 34.9112195 0.0879268293 34.9112195"></polygon>
    </defs>
    <g id="data_recovery" stroke="none" stroke-width="1" fill="none" fill-rule="evenodd">
        <g id="020-hard-drive" transform="translate(10.000000, 6.000000)">
            <g id="Group-3">
                <mask id="mask-2" fill="white">
                    <use xlink:href="#path-1"></use>
                </mask>
                <g id="Clip-2"></g>
                <path d="M25.0808079,0 L1.29382622,0 C0.628612805,0 0.0879268293,0.541006098 0.0879268293,1.20589939 L0.0879268293,33.7048933 C0.0879268293,34.3702134 0.629039634,34.9112195 1.29382622,34.9112195 L25.0808079,34.9112195 C25.7460213,34.9112195 26.2867073,34.3697866 26.2867073,33.7048933 L26.2867073,1.20589939 C26.2867073,0.541006098 25.7455945,0 25.0808079,0 Z M4.26370427,3.01117378 C5.19077744,3.01117378 5.94434451,3.76516768 5.94434451,4.69181402 C5.94434451,5.61835366 5.19077744,6.37245427 4.26370427,6.37245427 C3.33705793,6.37245427 2.58306402,5.61835366 2.58306402,4.69181402 C2.58306402,3.76516768 3.33705793,3.01117378 4.26370427,3.01117378 Z M4.26370427,31.9000457 C3.33705793,31.9000457 2.58306402,31.1460518 2.58306402,30.2194055 C2.58306402,29.292439 3.33705793,28.5387652 4.26370427,28.5387652 C5.19077744,28.5387652 5.94434451,29.292439 5.94434451,30.2194055 C5.94434451,31.1460518 5.19077744,31.9000457 4.26370427,31.9000457 Z M15.0378354,26.9652591 L16.5291768,22.7120122 C16.6438872,22.3839939 16.5363262,22.0066768 16.2398933,21.793689 C15.8797561,21.534497 15.3774848,21.6169817 15.1187195,21.9771189 L11.510625,26.9978049 C6.95977134,26.203689 3.50010671,22.2338567 3.50010671,17.4553963 C3.50010671,12.1054116 7.8371189,7.76797256 13.1871037,7.76797256 C18.5375152,7.76797256 22.8745274,12.1054116 22.8745274,17.4553963 C22.8745274,22.1726067 19.5024695,26.1015701 15.0378354,26.9652591 Z M22.110503,31.9000457 C21.1838567,31.9000457 20.4298628,31.1460518 20.4298628,30.2194055 C20.4298628,29.292439 21.1838567,28.5387652 22.110503,28.5387652 C23.0375762,28.5387652 23.7911433,29.292439 23.7911433,30.2194055 C23.7911433,31.1460518 23.0375762,31.9000457 22.110503,31.9000457 Z M22.110503,6.37245427 C21.1838567,6.37245427 20.4298628,5.61835366 20.4298628,4.69181402 C20.4298628,3.76516768 21.1838567,3.01117378 22.110503,3.01117378 C23.0375762,3.01117378 23.7911433,3.76516768 23.7911433,4.69181402 C23.7911433,5.61835366 23.0375762,6.37245427 22.110503,6.37245427 Z" id="Fill-1" fill="#FFFFFF" mask="url(#mask-2)"></path>
            </g>
            <path d="M15.8281098,17.4553963 C15.8281098,18.913872 14.6455793,20.0964024 13.1871037,20.0964024 C11.728628,20.0964024 10.5465244,18.913872 10.5465244,17.4553963 C10.5465244,15.9969207 11.728628,14.8148171 13.1871037,14.8148171 C14.6455793,14.8148171 15.8281098,15.9969207 15.8281098,17.4553963 Z" id="Fill-4" fill="#FFFFFF"></path>
        </g>
    </g>
</svg>