<?xml version="1.0" encoding="UTF-8"?>
<svg width="46px" height="46px" viewBox="0 0 46 46" version="1.1" xmlns="http://www.w3.org/2000/svg" xmlns:xlink="http://www.w3.org/1999/xlink">
    <!-- Generator: Sketch 52.6 (67491) - http://www.bohemiancoding.com/sketch -->
    <title>databases</title>
    <desc>Created with Sketch.</desc>
    <defs>
        <polygon id="path-1" points="-7.99171556e-16 0 25 0 25 29.3478261 -7.99171556e-16 29.3478261"></polygon>
    </defs>
    <g id="databases" stroke="none" stroke-width="1" fill="none" fill-rule="evenodd">
        <g id="database" transform="translate(11.000000, 8.000000)">
            <mask id="mask-2" fill="white">
                <use xlink:href="#path-1"></use>
            </mask>
            <g id="Clip-2"></g>
            <path d="M13.80375,16.6844994 C13.369375,16.6970872 12.934375,16.7040105 12.5,16.7040105 C12.065625,16.7040105 11.628125,16.6970872 11.19375,16.6844994 C7.521875,16.583797 4.596875,16.0601445 2.4925,15.3149468 C1.50125,14.9782231 0.654375,14.5848544 0,14.1304348 L0,18.8653357 C1.423125,20.360137 6.19625,21.7391304 12.5,21.7391304 C18.80375,21.7391304 23.576875,20.360137 25,18.8653357 L25,14.1304348 C24.340625,14.5873719 23.48625,14.9857758 22.4875,15.3224994 C20.383125,16.0651796 17.463125,16.583797 13.80375,16.6844994 Z" id="Fill-1" fill="#FFFFFF" mask="url(#mask-2)"></path>
            <path d="M0,7.60869565 L0,12.3413169 C1.318125,13.7277484 5.5175,15.0160032 11.1425,15.1953645 C11.20125,15.1978818 11.26,15.1978818 11.318125,15.2003992 C11.479375,15.2054339 11.643125,15.2098392 11.809375,15.2123566 C12.03625,15.214874 12.268125,15.2173913 12.5,15.2173913 C12.731875,15.2173913 12.96375,15.214874 13.190625,15.2123566 C13.356875,15.2098392 13.520625,15.2054339 13.681875,15.2003992 C13.74,15.1978818 13.79875,15.1978818 13.8575,15.1953645 C19.4825,15.0160032 23.681875,13.7277484 25,12.3438343 L25,7.60869565 C22.565625,9.29280397 17.421875,10.1826878 12.5,10.1826878 C7.578125,10.1826878 2.434375,9.29280397 0,7.60869565 Z" id="Fill-3" fill="#FFFFFF" mask="url(#mask-2)"></path>
            <path d="M24.931875,4.36764414 C24.3725,2.17039694 20.05875,0 12.5,0 C4.96125,0 0.651875,2.15761109 0.073125,4.35294042 C0.031875,4.42773761 0,4.5102063 0,4.60226437 L0,5.78111914 C1.41875,7.29688089 6.159375,8.69565217 12.5,8.69565217 C18.840625,8.69565217 23.58125,7.29688089 25,5.78111914 L25,4.60226437 C25,4.51787781 24.973125,4.44052345 24.931875,4.36764414 Z" id="Fill-4" fill="#FFFFFF" mask="url(#mask-2)"></path>
            <path d="M0,20.6521739 L0,24.7965412 C0,24.8799467 0.021875,24.9564017 0.05875,25.0259062 C0.649375,27.4990048 5.9325,29.3478261 12.5,29.3478261 C19.0525,29.3478261 24.32875,27.5065871 24.93625,25.040439 C24.978125,24.9690389 25,24.8850015 25,24.7965412 L25,20.6521739 C22.931875,22.1231431 18.671875,23.28071 12.5,23.28071 C6.328125,23.28071 2.068125,22.1231431 0,20.6521739 Z" id="Fill-5" fill="#FFFFFF" mask="url(#mask-2)"></path>
        </g>
    </g>
</svg>