<?xml version="1.0" encoding="UTF-8"?>
<svg width="46px" height="46px" viewBox="0 0 46 46" version="1.1" xmlns="http://www.w3.org/2000/svg" xmlns:xlink="http://www.w3.org/1999/xlink">
    <!-- Generator: Sketch 52.5 (67469) - http://www.bohemiancoding.com/sketch -->
    <title>design</title>
    <desc>Created with Sketch.</desc>
    <defs>
        <polygon id="path-1" points="0.00591304348 0 33.926087 0 33.926087 33.926087 0.00591304348 33.926087"></polygon>
    </defs>
    <g id="design" stroke="none" stroke-width="1" fill="none" fill-rule="evenodd">
        <g id="019-painter-palette" transform="translate(6.000000, 6.000000)">
            <mask id="mask-2" fill="white">
                <use xlink:href="#path-1"></use>
            </mask>
            <g id="Clip-2"></g>
            <path d="M16.9630435,0 C7.53913043,0 0,7.53913043 0,16.9630435 C0,26.3869565 7.53913043,33.926087 16.9630435,33.926087 C18.4709681,33.926087 19.7901681,32.6067884 19.7901681,31.0988638 C19.7901681,30.3451478 19.601542,29.7796638 19.0364522,29.2141797 C18.6592,28.6485971 18.282342,28.083113 18.282342,27.3292986 C18.282342,25.8214725 19.6019362,24.5021739 21.1094667,24.5021739 L24.5021739,24.5021739 C29.7796638,24.5021739 33.926087,20.3557507 33.926087,15.0782609 C33.926087,6.78541449 26.3869565,0 16.9630435,0 Z M6.59678841,16.9630435 C5.08886377,16.9630435 3.76956522,15.6437449 3.76956522,14.1359188 C3.76956522,12.6279942 5.08886377,11.3086957 6.59678841,11.3086957 C8.10461449,11.3086957 9.42391304,12.6279942 9.42391304,14.1359188 C9.42391304,15.6437449 8.10461449,16.9630435 6.59678841,16.9630435 Z M12.2510377,9.42391304 C10.7432116,9.42391304 9.42391304,8.10461449 9.42391304,6.59678841 C9.42391304,5.08886377 10.7432116,3.76956522 12.2510377,3.76956522 C13.7589623,3.76956522 15.0782609,5.08886377 15.0782609,6.59678841 C15.0782609,8.10461449 13.7589623,9.42391304 12.2510377,9.42391304 Z M21.6750493,9.42391304 C20.1671246,9.42391304 18.8478261,8.10461449 18.8478261,6.59678841 C18.8478261,5.08886377 20.1671246,3.76956522 21.6750493,3.76956522 C23.1828754,3.76956522 24.5021739,5.08886377 24.5021739,6.59678841 C24.5021739,8.10461449 23.1828754,9.42391304 21.6750493,9.42391304 Z M27.3292986,16.9630435 C25.8214725,16.9630435 24.5021739,15.6437449 24.5021739,14.1359188 C24.5021739,12.6279942 25.8214725,11.3086957 27.3292986,11.3086957 C28.8372232,11.3086957 30.1565217,12.6279942 30.1565217,14.1359188 C30.1565217,15.6437449 28.8372232,16.9630435 27.3292986,16.9630435 Z" id="Fill-1" fill="#FFFFFF" mask="url(#mask-2)"></path>
        </g>
    </g>
</svg>