<?xml version="1.0" encoding="UTF-8"?>
<svg width="46px" height="46px" viewBox="0 0 46 46" version="1.1" xmlns="http://www.w3.org/2000/svg" xmlns:xlink="http://www.w3.org/1999/xlink">
    <!-- Generator: Sketch 52.6 (67491) - http://www.bohemiancoding.com/sketch -->
    <title>development_tools</title>
    <desc>Created with Sketch.</desc>
    <g id="development_tools" stroke="none" stroke-width="1" fill="none" fill-rule="evenodd">
        <g id="application" transform="translate(8.000000, 8.000000)" fill="#FFFFFF" fill-rule="nonzero">
            <path d="M0.87890625,0 C0.386535656,0 0,0.386535656 0,0.87890625 L0,7.1484375 L21.1523438,7.1484375 L21.1523438,0 L0.87890625,0 Z M6.2109375,5.390625 L4.453125,5.390625 C3.96075441,5.390625 3.57421875,5.00390625 3.57421875,4.51171875 C3.57421875,4.01934816 3.96075441,3.6328125 4.453125,3.6328125 L6.2109375,3.6328125 C6.70330809,3.6328125 7.08984375,4.01934816 7.08984375,4.51171875 C7.08984375,5.00390625 6.70330809,5.390625 6.2109375,5.390625 Z M11.484375,5.390625 L9.7265625,5.390625 C9.23419191,5.390625 8.84765625,5.00390625 8.84765625,4.51171875 C8.84765625,4.01934816 9.23419191,3.6328125 9.7265625,3.6328125 L11.484375,3.6328125 C11.9767456,3.6328125 12.3632812,4.01934816 12.3632812,4.51171875 C12.3632812,5.00390625 11.9767456,5.390625 11.484375,5.390625 Z M16.7578125,5.390625 L15,5.390625 C14.5076294,5.390625 14.1210938,5.00390625 14.1210938,4.51171875 C14.1210938,4.01934816 14.5076294,3.6328125 15,3.6328125 L16.7578125,3.6328125 C17.2501831,3.6328125 17.6367188,4.01934816 17.6367188,4.51171875 C17.6367188,5.00390625 17.2501831,5.390625 16.7578125,5.390625 Z M29.1210938,0 L22.9101562,0 L22.9101562,7.1484375 L30,7.1484375 L30,0.87890625 C30,0.386535656 29.6134643,0 29.1210938,0 Z M7.08984375,12.421875 L7.08984375,14.1796875 L8.84765625,14.1796875 L8.84765625,12.421875 L7.08984375,12.421875 Z M7.08984375,12.421875 L7.08984375,14.1796875 L8.84765625,14.1796875 L8.84765625,12.421875 L7.08984375,12.421875 Z M7.08984375,12.421875 L7.08984375,14.1796875 L8.84765625,14.1796875 L8.84765625,12.421875 L7.08984375,12.421875 Z M14.1210938,12.421875 L14.1210938,14.1796875 L15.8789062,14.1796875 L15.8789062,12.421875 L14.1210938,12.421875 Z M21.1523438,12.421875 L21.1523438,14.1796875 L22.9101562,14.1796875 L22.9101562,12.421875 L21.1523438,12.421875 Z M21.1523438,12.421875 L21.1523438,14.1796875 L22.9101562,14.1796875 L22.9101562,12.421875 L21.1523438,12.421875 Z M7.08984375,12.421875 L7.08984375,14.1796875 L8.84765625,14.1796875 L8.84765625,12.421875 L7.08984375,12.421875 Z M14.1210938,12.421875 L14.1210938,14.1796875 L15.8789062,14.1796875 L15.8789062,12.421875 L14.1210938,12.421875 Z M7.08984375,12.421875 L7.08984375,14.1796875 L8.84765625,14.1796875 L8.84765625,12.421875 L7.08984375,12.421875 Z M14.1210938,12.421875 L14.1210938,14.1796875 L15.8789062,14.1796875 L15.8789062,12.421875 L14.1210938,12.421875 Z M21.1523438,12.421875 L21.1523438,14.1796875 L22.9101562,14.1796875 L22.9101562,12.421875 L21.1523438,12.421875 Z M21.1523438,12.421875 L21.1523438,14.1796875 L22.9101562,14.1796875 L22.9101562,12.421875 L21.1523438,12.421875 Z M7.08984375,12.421875 L7.08984375,14.1796875 L8.84765625,14.1796875 L8.84765625,12.421875 L7.08984375,12.421875 Z M14.1210938,12.421875 L14.1210938,14.1796875 L15.8789062,14.1796875 L15.8789062,12.421875 L14.1210938,12.421875 Z M7.08984375,12.421875 L7.08984375,14.1796875 L8.84765625,14.1796875 L8.84765625,12.421875 L7.08984375,12.421875 Z M14.1210938,12.421875 L14.1210938,14.1796875 L15.8789062,14.1796875 L15.8789062,12.421875 L14.1210938,12.421875 Z M21.1523438,12.421875 L21.1523438,14.1796875 L22.9101562,14.1796875 L22.9101562,12.421875 L21.1523438,12.421875 Z M21.1523438,12.421875 L21.1523438,14.1796875 L22.9101562,14.1796875 L22.9101562,12.421875 L21.1523438,12.421875 Z M7.08984375,12.421875 L7.08984375,14.1796875 L8.84765625,14.1796875 L8.84765625,12.421875 L7.08984375,12.421875 Z M14.1210938,12.421875 L14.1210938,14.1796875 L15.8789062,14.1796875 L15.8789062,12.421875 L14.1210938,12.421875 Z M7.08984375,12.421875 L7.08984375,14.1796875 L8.84765625,14.1796875 L8.84765625,12.421875 L7.08984375,12.421875 Z M14.1210938,12.421875 L14.1210938,14.1796875 L15.8789062,14.1796875 L15.8789062,12.421875 L14.1210938,12.421875 Z M21.1523438,12.421875 L21.1523438,14.1796875 L22.9101562,14.1796875 L22.9101562,12.421875 L21.1523438,12.421875 Z M21.1523438,12.421875 L21.1523438,14.1796875 L22.9101562,14.1796875 L22.9101562,12.421875 L21.1523438,12.421875 Z M10.6054688,22.96875 L10.6054688,24.7265625 L17.6367188,24.7265625 L17.6367188,22.96875 L10.6054688,22.96875 Z M7.08984375,12.421875 L7.08984375,14.1796875 L8.84765625,14.1796875 L8.84765625,12.421875 L7.08984375,12.421875 Z M14.1210938,12.421875 L14.1210938,14.1796875 L15.8789062,14.1796875 L15.8789062,12.421875 L14.1210938,12.421875 Z M7.08984375,12.421875 L7.08984375,14.1796875 L8.84765625,14.1796875 L8.84765625,12.421875 L7.08984375,12.421875 Z M14.1210938,12.421875 L14.1210938,14.1796875 L15.8789062,14.1796875 L15.8789062,12.421875 L14.1210938,12.421875 Z M21.1523438,12.421875 L21.1523438,14.1796875 L22.9101562,14.1796875 L22.9101562,12.421875 L21.1523438,12.421875 Z M21.1523438,12.421875 L21.1523438,14.1796875 L22.9101562,14.1796875 L22.9101562,12.421875 L21.1523438,12.421875 Z M10.6054688,22.96875 L10.6054688,24.7265625 L17.6367188,24.7265625 L17.6367188,22.96875 L10.6054688,22.96875 Z M7.08984375,22.96875 L7.08984375,24.7265625 L8.84765625,24.7265625 L8.84765625,22.96875 L7.08984375,22.96875 Z M7.08984375,12.421875 L7.08984375,14.1796875 L8.84765625,14.1796875 L8.84765625,12.421875 L7.08984375,12.421875 Z M14.1210938,12.421875 L14.1210938,14.1796875 L15.8789062,14.1796875 L15.8789062,12.421875 L14.1210938,12.421875 Z M7.08984375,12.421875 L7.08984375,14.1796875 L8.84765625,14.1796875 L8.84765625,12.421875 L7.08984375,12.421875 Z M7.08984375,22.96875 L7.08984375,24.7265625 L8.84765625,24.7265625 L8.84765625,22.96875 L7.08984375,22.96875 Z M14.1210938,12.421875 L14.1210938,14.1796875 L15.8789062,14.1796875 L15.8789062,12.421875 L14.1210938,12.421875 Z M10.6054688,22.96875 L10.6054688,24.7265625 L17.6367188,24.7265625 L17.6367188,22.96875 L10.6054688,22.96875 Z M21.1523438,12.421875 L21.1523438,14.1796875 L22.9101562,14.1796875 L22.9101562,12.421875 L21.1523438,12.421875 Z M21.1523438,12.421875 L21.1523438,14.1796875 L22.9101562,14.1796875 L22.9101562,12.421875 L21.1523438,12.421875 Z M10.6054688,22.96875 L10.6054688,24.7265625 L17.6367188,24.7265625 L17.6367188,22.96875 L10.6054688,22.96875 Z M7.08984375,24.7265625 L8.84765625,24.7265625 L8.84765625,22.96875 L7.08984375,22.96875 L7.08984375,24.7265625 Z M7.08984375,12.421875 L7.08984375,14.1796875 L8.84765625,14.1796875 L8.84765625,12.421875 L7.08984375,12.421875 Z M14.1210938,12.421875 L14.1210938,14.1796875 L15.8789062,14.1796875 L15.8789062,12.421875 L14.1210938,12.421875 Z M0,8.90625 L0,29.1210938 C0,29.6132812 0.386535656,30 0.87890625,30 L29.1210938,30 C29.6134643,30 30,29.6132812 30,29.1210938 L30,8.90625 L0,8.90625 Z M12.3632812,11.5429688 C12.3632812,11.0505982 12.7498169,10.6640625 13.2421875,10.6640625 L16.7578125,10.6640625 C17.2501831,10.6640625 17.6367188,11.0505982 17.6367188,11.5429688 L17.6367188,15.0585938 C17.6367188,15.5507812 17.2501831,15.9375 16.7578125,15.9375 L13.2421875,15.9375 C12.7498169,15.9375 12.3632812,15.5507812 12.3632812,15.0585938 L12.3632812,11.5429688 Z M13.2421875,17.6953125 L16.7578125,17.6953125 C17.2501831,17.6953125 17.6367188,18.0818482 17.6367188,18.5742188 C17.6367188,19.0664062 17.2501831,19.453125 16.7578125,19.453125 L13.2421875,19.453125 C12.7498169,19.453125 12.3632812,19.0664062 12.3632812,18.5742188 C12.3632812,18.0818482 12.7498169,17.6953125 13.2421875,17.6953125 Z M5.33203125,11.5429688 C5.33203125,11.0505982 5.71856691,10.6640625 6.2109375,10.6640625 L9.7265625,10.6640625 C10.2189331,10.6640625 10.6054688,11.0505982 10.6054688,11.5429688 L10.6054688,15.0585938 C10.6054688,15.5507812 10.2189331,15.9375 9.7265625,15.9375 L6.2109375,15.9375 C5.71856691,15.9375 5.33203125,15.5507812 5.33203125,15.0585938 L5.33203125,11.5429688 Z M6.2109375,17.6953125 L9.7265625,17.6953125 C10.2189331,17.6953125 10.6054688,18.0818482 10.6054688,18.5742188 C10.6054688,19.0664062 10.2189331,19.453125 9.7265625,19.453125 L6.2109375,19.453125 C5.71856691,19.453125 5.33203125,19.0664062 5.33203125,18.5742188 C5.33203125,18.0818482 5.71856691,17.6953125 6.2109375,17.6953125 Z M24.1755982,24.6386719 L20.6599732,26.3964844 C20.5371094,26.4492188 20.4140625,26.484375 20.2734375,26.484375 L6.2109375,26.484375 C5.71856691,26.484375 5.33203125,26.0976562 5.33203125,25.6054688 L5.33203125,22.0898438 C5.33203125,21.5974732 5.71856691,21.2109375 6.2109375,21.2109375 L20.2734375,21.2109375 C20.4142456,21.2109375 20.5371094,21.2459107 20.6599732,21.2988281 L24.1755982,23.0566406 C24.4746094,23.2148438 24.6679688,23.5136719 24.6679688,23.8476562 C24.6679688,24.1816406 24.4746094,24.4804688 24.1755982,24.6386719 Z M23.7890625,19.453125 L20.2734375,19.453125 C19.7810669,19.453125 19.3945313,19.0664062 19.3945313,18.5742188 C19.3945313,18.0818482 19.7810669,17.6953125 20.2734375,17.6953125 L23.7890625,17.6953125 C24.2814331,17.6953125 24.6679688,18.0818482 24.6679688,18.5742188 C24.6679688,19.0664062 24.2814331,19.453125 23.7890625,19.453125 Z M24.6679688,15.0585938 C24.6679688,15.5507812 24.2814331,15.9375 23.7890625,15.9375 L20.2734375,15.9375 C19.7810669,15.9375 19.3945313,15.5507812 19.3945313,15.0585938 L19.3945313,11.5429688 C19.3945313,11.0505982 19.7810669,10.6640625 20.2734375,10.6640625 L23.7890625,10.6640625 C24.2814331,10.6640625 24.6679688,11.0505982 24.6679688,11.5429688 L24.6679688,15.0585938 Z M21.1523438,14.1796875 L22.9101563,14.1796875 L22.9101563,12.421875 L21.1523438,12.421875 L21.1523438,14.1796875 Z M19.3945313,22.96875 L19.3945313,24.7265625 L20.0625,24.7265625 L21.8203125,23.8476562 L20.0625,22.96875 L19.3945313,22.96875 Z M10.6054688,24.7265625 L17.6367188,24.7265625 L17.6367188,22.96875 L10.6054688,22.96875 L10.6054688,24.7265625 Z M15.8789063,12.421875 L14.1210938,12.421875 L14.1210938,14.1796875 L15.8789063,14.1796875 L15.8789063,12.421875 Z M7.08984375,24.7265625 L8.84765625,24.7265625 L8.84765625,22.96875 L7.08984375,22.96875 L7.08984375,24.7265625 Z M8.84765625,12.421875 L7.08984375,12.421875 L7.08984375,14.1796875 L8.84765625,14.1796875 L8.84765625,12.421875 Z M14.1210938,12.421875 L14.1210938,14.1796875 L15.8789063,14.1796875 L15.8789063,12.421875 L14.1210938,12.421875 Z M7.08984375,12.421875 L7.08984375,14.1796875 L8.84765625,14.1796875 L8.84765625,12.421875 L7.08984375,12.421875 Z M7.08984375,22.96875 L7.08984375,24.7265625 L8.84765625,24.7265625 L8.84765625,22.96875 L7.08984375,22.96875 Z M10.6054688,22.96875 L10.6054688,24.7265625 L17.6367188,24.7265625 L17.6367188,22.96875 L10.6054688,22.96875 Z M21.1523438,12.421875 L21.1523438,14.1796875 L22.9101563,14.1796875 L22.9101563,12.421875 L21.1523438,12.421875 Z M21.1523438,12.421875 L21.1523438,14.1796875 L22.9101563,14.1796875 L22.9101563,12.421875 L21.1523438,12.421875 Z M14.1210938,12.421875 L14.1210938,14.1796875 L15.8789063,14.1796875 L15.8789063,12.421875 L14.1210938,12.421875 Z M7.08984375,22.96875 L7.08984375,24.7265625 L8.84765625,24.7265625 L8.84765625,22.96875 L7.08984375,22.96875 Z M7.08984375,12.421875 L7.08984375,14.1796875 L8.84765625,14.1796875 L8.84765625,12.421875 L7.08984375,12.421875 Z M14.1210938,12.421875 L14.1210938,14.1796875 L15.8789063,14.1796875 L15.8789063,12.421875 L14.1210938,12.421875 Z M7.08984375,12.421875 L7.08984375,14.1796875 L8.84765625,14.1796875 L8.84765625,12.421875 L7.08984375,12.421875 Z M7.08984375,22.96875 L7.08984375,24.7265625 L8.84765625,24.7265625 L8.84765625,22.96875 L7.08984375,22.96875 Z M10.6054688,22.96875 L10.6054688,24.7265625 L17.6367188,24.7265625 L17.6367188,22.96875 L10.6054688,22.96875 Z M21.1523438,12.421875 L21.1523438,14.1796875 L22.9101563,14.1796875 L22.9101563,12.421875 L21.1523438,12.421875 Z M21.1523438,12.421875 L21.1523438,14.1796875 L22.9101563,14.1796875 L22.9101563,12.421875 L21.1523438,12.421875 Z M14.1210938,12.421875 L14.1210938,14.1796875 L15.8789063,14.1796875 L15.8789063,12.421875 L14.1210938,12.421875 Z M7.08984375,12.421875 L7.08984375,14.1796875 L8.84765625,14.1796875 L8.84765625,12.421875 L7.08984375,12.421875 Z M14.1210938,12.421875 L14.1210938,14.1796875 L15.8789063,14.1796875 L15.8789063,12.421875 L14.1210938,12.421875 Z M7.08984375,12.421875 L7.08984375,14.1796875 L8.84765625,14.1796875 L8.84765625,12.421875 L7.08984375,12.421875 Z M10.6054688,22.96875 L10.6054688,24.7265625 L17.6367188,24.7265625 L17.6367188,22.96875 L10.6054688,22.96875 Z M21.1523438,12.421875 L21.1523438,14.1796875 L22.9101563,14.1796875 L22.9101563,12.421875 L21.1523438,12.421875 Z M21.1523438,12.421875 L21.1523438,14.1796875 L22.9101563,14.1796875 L22.9101563,12.421875 L21.1523438,12.421875 Z M14.1210938,12.421875 L14.1210938,14.1796875 L15.8789063,14.1796875 L15.8789063,12.421875 L14.1210938,12.421875 Z M7.08984375,12.421875 L7.08984375,14.1796875 L8.84765625,14.1796875 L8.84765625,12.421875 L7.08984375,12.421875 Z M14.1210938,12.421875 L14.1210938,14.1796875 L15.8789063,14.1796875 L15.8789063,12.421875 L14.1210938,12.421875 Z M7.08984375,12.421875 L7.08984375,14.1796875 L8.84765625,14.1796875 L8.84765625,12.421875 L7.08984375,12.421875 Z M21.1523438,12.421875 L21.1523438,14.1796875 L22.9101563,14.1796875 L22.9101563,12.421875 L21.1523438,12.421875 Z M21.1523438,12.421875 L21.1523438,14.1796875 L22.9101563,14.1796875 L22.9101563,12.421875 L21.1523438,12.421875 Z M14.1210938,12.421875 L14.1210938,14.1796875 L15.8789063,14.1796875 L15.8789063,12.421875 L14.1210938,12.421875 Z M7.08984375,12.421875 L7.08984375,14.1796875 L8.84765625,14.1796875 L8.84765625,12.421875 L7.08984375,12.421875 Z M14.1210938,12.421875 L14.1210938,14.1796875 L15.8789063,14.1796875 L15.8789063,12.421875 L14.1210938,12.421875 Z M7.08984375,12.421875 L7.08984375,14.1796875 L8.84765625,14.1796875 L8.84765625,12.421875 L7.08984375,12.421875 Z M21.1523438,12.421875 L21.1523438,14.1796875 L22.9101563,14.1796875 L22.9101563,12.421875 L21.1523438,12.421875 Z M21.1523438,12.421875 L21.1523438,14.1796875 L22.9101563,14.1796875 L22.9101563,12.421875 L21.1523438,12.421875 Z M14.1210938,12.421875 L14.1210938,14.1796875 L15.8789063,14.1796875 L15.8789063,12.421875 L14.1210938,12.421875 Z M7.08984375,12.421875 L7.08984375,14.1796875 L8.84765625,14.1796875 L8.84765625,12.421875 L7.08984375,12.421875 Z M14.1210938,12.421875 L14.1210938,14.1796875 L15.8789063,14.1796875 L15.8789063,12.421875 L14.1210938,12.421875 Z M7.08984375,12.421875 L7.08984375,14.1796875 L8.84765625,14.1796875 L8.84765625,12.421875 L7.08984375,12.421875 Z M14.1210938,12.421875 L14.1210938,14.1796875 L15.8789063,14.1796875 L15.8789063,12.421875 L14.1210938,12.421875 Z M7.08984375,12.421875 L7.08984375,14.1796875 L8.84765625,14.1796875 L8.84765625,12.421875 L7.08984375,12.421875 Z" id="Shape"></path>
        </g>
    </g>
</svg>