<?xml version="1.0" encoding="UTF-8"?>
<svg width="46px" height="46px" viewBox="0 0 46 46" version="1.1" xmlns="http://www.w3.org/2000/svg" xmlns:xlink="http://www.w3.org/1999/xlink">
    <!-- Generator: Sketch 52.5 (67469) - http://www.bohemiancoding.com/sketch -->
    <title>entertainment</title>
    <desc>Created with Sketch.</desc>
    <defs>
        <polygon id="path-1" points="3.61736606e-16 0 25 0 25 29.4642857 3.61736606e-16 29.4642857"></polygon>
    </defs>
    <g id="entertainment" stroke="none" stroke-width="1" fill="none" fill-rule="evenodd">
        <g id="music-player-play" transform="translate(11.000000, 8.000000)">
            <mask id="mask-2" fill="white">
                <use xlink:href="#path-1"></use>
            </mask>
            <g id="Clip-2"></g>
            <path d="M23.6486167,12.6444987 L4.01356713,0.291076443 C3.43318718,-0.0539823552 2.71204166,0.00360676837 2.16788581,0.00360676837 C-0.00984972928,0.00360676837 6.83182881e-07,1.68241698 6.83182881e-07,2.10759287 L6.83182881e-07,27.3566953 C6.83182881e-07,27.7160324 -0.00937309642,29.4606814 2.16788581,29.4606814 C2.71204166,29.4606814 3.43318718,29.5182706 4.01356713,29.1730531 L23.6486167,16.8196308 C25.2602713,15.8621918 24.9816,14.7318268 24.9816,14.7318268 C24.9816,14.7318268 25.2602713,13.6020964 23.6486167,12.6444987 Z" id="Fill-1" fill="#FFFFFF" mask="url(#mask-2)"></path>
        </g>
    </g>
</svg>