<?xml version="1.0" encoding="UTF-8"?>
<svg width="46px" height="46px" viewBox="0 0 46 46" version="1.1" xmlns="http://www.w3.org/2000/svg" xmlns:xlink="http://www.w3.org/1999/xlink">
    <!-- Generator: Sketch 52.6 (67491) - http://www.bohemiancoding.com/sketch -->
    <title>gaming</title>
    <desc>Created with Sketch.</desc>
    <g id="gaming" stroke="none" stroke-width="1" fill="none" fill-rule="evenodd">
        <path d="M38.1871988,15.8125135 C36.3119022,13.9372168 34.0496944,13 31.4,13 L14.5997123,13 C11.950018,13 9.68694714,13.9372168 7.81251348,15.8125135 C5.93721683,17.6869471 5,19.950018 5,22.5997123 C5,25.2505574 5.93836749,27.5124775 7.81251348,29.3869112 C9.68694714,31.2622078 11.950018,32.1994247 14.5997123,32.1994247 C17,32.1994247 19.1126214,31.3994247 20.9372887,29.799137 L25.0624236,29.799137 C26.8873786,31.3994247 29,32.1994247 31.4,32.1994247 C34.0496944,32.1994247 36.3119022,31.2622078 38.1871988,29.3869112 C40.0616325,27.5113269 41,25.2505574 41,22.5997123 C41,19.950018 40.0627832,17.6869471 38.1871988,15.8125135 Z M20.6001438,23.7998562 C20.6001438,23.9750449 20.5440489,24.1188781 20.4307084,24.2313556 C20.3182309,24.3435455 20.1755484,24.3999281 20.0003596,24.3999281 L16.3999281,24.3999281 L16.3999281,28.0000719 C16.3999281,28.1743977 16.3438332,28.3182309 16.2313556,28.4304207 C16.1188781,28.5428982 15.9750449,28.5989932 15.7998562,28.5989932 L13.3995685,28.5989932 C13.2255304,28.5989932 13.0816972,28.5428982 12.968069,28.4304207 C12.8558792,28.3182309 12.7994966,28.1743977 12.7994966,28.0000719 L12.7994966,24.3999281 L9.20050342,24.3999281 C9.02502697,24.3999281 8.88119382,24.3435455 8.76900396,24.2313556 C8.65652643,24.1188781 8.6004315,23.9750449 8.6004315,23.7998562 L8.6004315,21.3995685 C8.6004315,21.2255304 8.65652643,21.0816972 8.76900396,20.968069 C8.88119382,20.8555915 9.02502697,20.7994966 9.20050342,20.7994966 L12.7994966,20.7994966 L12.7994966,17.2002157 C12.7994966,17.025027 12.8558792,16.8811938 12.968069,16.7687163 C13.0816972,16.6565264 13.2255304,16.6001438 13.3995685,16.6001438 L15.7998562,16.6001438 C15.9750449,16.6001438 16.1188781,16.6565264 16.2313556,16.7687163 C16.3438332,16.8811938 16.3999281,17.025027 16.3999281,17.2002157 L16.3999281,20.7994966 L20.0003596,20.7994966 C20.1755484,20.7994966 20.3182309,20.8555915 20.4307084,20.968069 C20.5440489,21.0816972 20.6001438,21.2255304 20.6001438,21.3995685 L20.6001438,23.7998562 Z M30.6966559,26.6966559 C30.2280475,27.1652643 29.6616325,27.4 29,27.4 C28.3369292,27.4 27.7716649,27.1652643 27.3030565,26.6966559 C26.834448,26.2280475 26.5997123,25.6616325 26.5997123,25 C26.5997123,24.3369292 26.834448,23.7716649 27.3030565,23.3030565 C27.7716649,22.834448 28.3369292,22.5997123 29,22.5997123 C29.6616325,22.5997123 30.2280475,22.834448 30.6966559,23.3030565 C31.1652643,23.7716649 31.4,24.3369292 31.4,25 C31.4,25.6616325 31.1652643,26.2280475 30.6966559,26.6966559 Z M35.4960805,21.8963682 C35.0286228,22.364689 34.4622078,22.5997123 33.799137,22.5997123 C33.1372168,22.5997123 32.5710895,22.3658396 32.1024811,21.8963682 C31.6338727,21.4277598 31.399137,20.8624955 31.399137,20.1994247 C31.399137,19.5375045 31.6338727,18.9713772 32.1024811,18.5027688 C32.5710895,18.0341604 33.1372168,17.8002877 33.799137,17.8002877 C34.4622078,17.8002877 35.0286228,18.0341604 35.4960805,18.5027688 C35.964689,18.9713772 36.1994247,19.5375045 36.1994247,20.1994247 C36.1994247,20.8624955 35.9658396,21.4277598 35.4960805,21.8963682 Z" id="gamepad-console" fill="#FFFFFF"></path>
    </g>
</svg>