<?xml version="1.0" encoding="UTF-8"?>
<svg width="46px" height="46px" viewBox="0 0 46 46" version="1.1" xmlns="http://www.w3.org/2000/svg" xmlns:xlink="http://www.w3.org/1999/xlink">
    <!-- Generator: Sketch 52.6 (67491) - http://www.bohemiancoding.com/sketch -->
    <title>programming_languages</title>
    <desc>Created with Sketch.</desc>
    <g id="programming_languages" stroke="none" stroke-width="1" fill="none" fill-rule="evenodd">
        <path d="M39.8801926,6 L7.11980739,6 C6.50139376,6 6,6.50139376 6,7.11980739 L6,39.8801926 C6,40.4986062 6.50139376,41 7.11980739,41 L39.8801926,41 C40.4986062,41 41,40.4986062 41,39.8801926 L41,7.11980739 C41,6.50139376 40.4986062,6 39.8801926,6 Z M19.6651496,27.6443372 C18.6032922,28.5732174 17.2473455,29.0849694 15.8464664,29.0849694 C12.6985478,29.0849694 10.1379683,26.5770208 10.1379683,23.4936311 C10.1379683,20.4175202 12.6985478,17.9148906 15.8464664,17.9148906 C17.2488852,17.9148906 18.6006327,18.4223034 19.6519919,19.343065 C20.0861972,19.7230996 20.1293098,20.3830861 19.749835,20.8165915 C19.3699404,21.250237 18.7099539,21.2939094 18.2763085,20.9138748 C17.6059638,20.3261159 16.7425923,20.0030515 15.8464664,20.0030515 C13.8501298,20.0030515 12.2261291,21.5684022 12.2261291,23.4936311 C12.2261291,25.4254388 13.8501298,26.9969485 15.8464664,26.9969485 C16.7414725,26.9969485 17.6093232,26.668845 18.2900261,26.0728275 C18.7240915,25.6927928 19.383518,25.7371652 19.7629928,26.1712305 C20.1430274,26.6054359 20.0993549,27.2648624 19.6651496,27.6443372 Z M26.8230984,24.5440104 L24.7189803,24.5440104 L24.7189803,26.6479885 C24.7189803,27.2248293 24.2516007,27.691789 23.6747599,27.691789 C23.0983391,27.691789 22.6308195,27.2248293 22.6308195,26.6479885 L22.6308195,24.5440104 L20.5268414,24.5440104 C19.9500006,24.5440104 19.482481,24.0764908 19.482481,23.50021 C19.482481,22.9233692 19.9500006,22.4558496 20.5268414,22.4558496 L22.6308195,22.4558496 L22.6308195,20.3518715 C22.6308195,19.7755906 23.0983391,19.308071 23.6747599,19.308071 C24.2516007,19.308071 24.7189803,19.7755906 24.7189803,20.3518715 L24.7189803,22.4558496 L26.8230984,22.4558496 C27.3993793,22.4558496 27.8668989,22.9233692 27.8668989,23.50021 C27.8668989,24.0764908 27.3993793,24.5440104 26.8230984,24.5440104 Z M35.8176714,24.5440104 L33.7135533,24.5440104 L33.7135533,26.6479885 C33.7135533,27.2248293 33.2465936,27.691789 32.6697528,27.691789 C32.092912,27.691789 31.6253924,27.2248293 31.6253924,26.6479885 L31.6253924,24.5440104 L29.5214143,24.5440104 C28.9451334,24.5440104 28.4776139,24.0764908 28.4776139,23.50021 C28.4776139,22.9233692 28.9451334,22.4558496 29.5214143,22.4558496 L31.6253924,22.4558496 L31.6253924,20.3518715 C31.6253924,19.7755906 32.092912,19.308071 32.6697528,19.308071 C33.2460337,19.308071 33.7135533,19.7755906 33.7135533,20.3518715 L33.7135533,22.4558496 L35.8176714,22.4558496 C36.3945121,22.4558496 36.8618918,22.9233692 36.8618918,23.50021 C36.8618918,24.0764908 36.3945121,24.5440104 35.8176714,24.5440104 Z" id="c-logo" fill="#FFFFFF"></path>
    </g>
</svg>