<?xml version="1.0" encoding="UTF-8"?>
<svg width="46px" height="46px" viewBox="0 0 46 46" version="1.1" xmlns="http://www.w3.org/2000/svg" xmlns:xlink="http://www.w3.org/1999/xlink">
    <!-- Generator: Sketch 52.6 (67491) - http://www.bohemiancoding.com/sketch -->
    <title>programming_languages</title>
    <desc>Created with Sketch.</desc>
    <g id="programming_languages" stroke="none" stroke-width="1" fill="none" fill-rule="evenodd">
        <path d="M36.8816482,36.3569925 C33.5511723,39.3506767 29.2982959,41 24.9044911,41 C15.0311622,41 7,32.9171429 7,22.9796992 C7,13.0657143 15.0311622,5 24.9044911,5 C29.3031252,5 33.5428307,6.63533835 36.8403794,9.60285714 C38.2022482,10.8276692 38.3374692,12.9547368 37.1472609,14.3518797 C35.9557355,15.7494737 33.8857126,15.8902256 32.5255999,14.6654135 C30.4230888,12.7711278 27.7151564,11.7299248 24.9044911,11.7299248 C18.6430558,11.7299248 13.5494384,16.7748872 13.5494384,22.9796992 C13.5494384,29.2057143 18.6430558,34.2705263 24.9044911,34.2705263 C27.7116441,34.2705263 30.4336255,33.2130827 32.5686248,31.2921805 C33.9300545,30.0673684 35.9983213,30.2103759 37.1885296,31.6093233 C38.3804941,33.0087218 38.2435169,35.133985 36.8816482,36.3569925 Z" id="c-logo" fill="#FFFFFF"></path>
    </g>
</svg>