<?xml version="1.0" encoding="UTF-8"?>
<svg width="46px" height="46px" viewBox="0 0 46 46" version="1.1" xmlns="http://www.w3.org/2000/svg" xmlns:xlink="http://www.w3.org/1999/xlink">
    <!-- Generator: Sketch 52.5 (67469) - http://www.bohemiancoding.com/sketch -->
    <title>remote_access</title>
    <desc>Created with Sketch.</desc>
    <defs>
        <polygon id="path-1" points="0 0 17.9934375 0 17.9934375 34 0 34"></polygon>
    </defs>
    <g id="remote_access" stroke="none" stroke-width="1" fill="none" fill-rule="evenodd">
        <g id="017-remote-control" transform="translate(14.000000, 6.000000)">
            <path d="M6.33090625,6.93507031 C6.664,6.93507031 6.93507031,6.664 6.93507031,6.33064062 C6.93507031,5.99754687 6.664,5.72647656 6.33090625,5.72647656 C5.99754688,5.72647656 5.72621094,5.99754687 5.72621094,6.33064062 C5.72621094,6.664 5.99754688,6.93507031 6.33090625,6.93507031 Z" id="Fill-1" fill="#FFFFFF"></path>
            <path d="M11.6651875,21.7303828 C11.3320937,21.7303828 11.0610234,22.0014531 11.0610234,22.3345469 C11.0610234,22.6679063 11.3320937,22.9389766 11.6651875,22.9389766 C11.9985469,22.9389766 12.2696172,22.6679063 12.2696172,22.3345469 C12.2696172,22.0014531 11.9985469,21.7303828 11.6651875,21.7303828 Z" id="Fill-2" fill="#FFFFFF"></path>
            <path d="M8.99804688,12.6615469 C8.07666016,12.6615469 7.327,13.411207 7.327,14.3325937 C7.327,15.2542461 8.07666016,16.0039062 8.99804688,16.0039062 C9.91969922,16.0039062 10.6690938,15.2542461 10.6690938,14.3325937 C10.6690938,13.411207 9.91969922,12.6615469 8.99804688,12.6615469 Z" id="Fill-3" fill="#FFFFFF"></path>
            <path d="M11.6651875,5.72647656 C11.3320937,5.72647656 11.0610234,5.99754687 11.0610234,6.33064062 C11.0610234,6.664 11.3320937,6.93507031 11.6651875,6.93507031 C11.9985469,6.93507031 12.2696172,6.664 12.2696172,6.33064062 C12.2696172,5.99754687 11.9985469,5.72647656 11.6651875,5.72647656 Z" id="Fill-4" fill="#FFFFFF"></path>
            <path d="M11.6651875,27.0649297 C11.3320937,27.0649297 11.0610234,27.336 11.0610234,27.6693594 C11.0610234,28.0024531 11.3320937,28.2735234 11.6651875,28.2735234 C11.9985469,28.2735234 12.2696172,28.0024531 12.2696172,27.6693594 C12.2696172,27.336 11.9985469,27.0649297 11.6651875,27.0649297 Z" id="Fill-5" fill="#FFFFFF"></path>
            <path d="M6.93507031,22.3345469 C6.93507031,22.6683711 6.66446484,22.9389766 6.33064063,22.9389766 C5.99708203,22.9389766 5.72647656,22.6683711 5.72647656,22.3345469 C5.72647656,22.0009883 5.99708203,21.7303828 6.33064063,21.7303828 C6.66446484,21.7303828 6.93507031,22.0009883 6.93507031,22.3345469 Z" id="Fill-6" fill="#FFFFFF"></path>
            <g id="Group-10">
                <mask id="mask-2" fill="white">
                    <use xlink:href="#path-1"></use>
                </mask>
                <g id="Clip-8"></g>
                <path d="M6.33090625,27.0649297 C5.99754688,27.0649297 5.72621094,27.336 5.72621094,27.6693594 C5.72621094,28.0024531 5.99754688,28.2735234 6.33090625,28.2735234 C6.664,28.2735234 6.93507031,28.0024531 6.93507031,27.6693594 C6.93507031,27.336 6.664,27.0649297 6.33090625,27.0649297 Z" id="Fill-7" fill="#FFFFFF" mask="url(#mask-2)"></path>
                <path d="M14.3328594,0 L3.66323438,0 C1.64328906,0 0,1.64328906 0,3.6635 L0,30.3365 C0,32.3567109 1.64328906,34 3.66323438,34 L14.3328594,34 C16.3528047,34 17.9960938,32.3567109 17.9960938,30.3365 L17.9960938,3.6635 C17.9960938,1.64328906 16.3528047,0 14.3328594,0 Z M6.33090625,3.73428906 C7.76255859,3.73428906 8.92725781,4.89898828 8.92725781,6.33064063 C8.92725781,7.76255859 7.76255859,8.92725781 6.33090625,8.92725781 C4.89898828,8.92725781 3.73402344,7.76255859 3.73402344,6.33064063 C3.73402344,4.89898828 4.89898828,3.73428906 6.33090625,3.73428906 Z M6.33090625,30.2657109 C4.89898828,30.2657109 3.73402344,29.1010117 3.73402344,27.6693594 C3.73402344,26.2374414 4.89898828,25.0727422 6.33090625,25.0727422 C7.76255859,25.0727422 8.92725781,26.2374414 8.92725781,27.6693594 C8.92725781,29.1010117 7.76255859,30.2657109 6.33090625,30.2657109 Z M6.33090625,24.9311641 C4.89898828,24.9311641 3.73402344,23.7664648 3.73402344,22.3345469 C3.73402344,20.9028945 4.89898828,19.7381953 6.33090625,19.7381953 C7.76255859,19.7381953 8.92725781,20.9028945 8.92725781,22.3345469 C8.92725781,23.7664648 7.76255859,24.9311641 6.33090625,24.9311641 Z M5.3348125,14.3325937 C5.3348125,12.3126484 6.97810156,10.6693594 8.99804688,10.6693594 C11.0179922,10.6693594 12.6612813,12.3126484 12.6612813,14.3325937 C12.6612813,16.3528047 11.0179922,17.9960938 8.99804688,17.9960938 C6.97810156,17.9960938 5.3348125,16.3528047 5.3348125,14.3325937 Z M11.6651875,30.2657109 C10.2335352,30.2657109 9.06883594,29.1010117 9.06883594,27.6693594 C9.06883594,26.2374414 10.2335352,25.0727422 11.6651875,25.0727422 C13.0971055,25.0727422 14.2618047,26.2374414 14.2618047,27.6693594 C14.2618047,29.1010117 13.0971055,30.2657109 11.6651875,30.2657109 Z M11.6651875,24.9311641 C10.2335352,24.9311641 9.06883594,23.7664648 9.06883594,22.3345469 C9.06883594,20.9028945 10.2335352,19.7381953 11.6651875,19.7381953 C13.0971055,19.7381953 14.2618047,20.9028945 14.2618047,22.3345469 C14.2618047,23.7664648 13.0971055,24.9311641 11.6651875,24.9311641 Z M11.6651875,8.92725781 C10.2335352,8.92725781 9.06883594,7.76255859 9.06883594,6.33064063 C9.06883594,4.89898828 10.2335352,3.73428906 11.6651875,3.73428906 C13.0971055,3.73428906 14.2618047,4.89898828 14.2618047,6.33064063 C14.2618047,7.76255859 13.0971055,8.92725781 11.6651875,8.92725781 Z" id="Fill-9" fill="#FFFFFF" mask="url(#mask-2)"></path>
            </g>
        </g>
    </g>
</svg>