<?xml version="1.0" encoding="UTF-8"?>
<svg width="46px" height="46px" viewBox="0 0 46 46" version="1.1" xmlns="http://www.w3.org/2000/svg" xmlns:xlink="http://www.w3.org/1999/xlink">
    <!-- Generator: Sketch 52.5 (67469) - http://www.bohemiancoding.com/sketch -->
    <title>utilities</title>
    <desc>Created with Sketch.</desc>
    <g id="utilities" stroke="none" stroke-width="1" fill="none" fill-rule="evenodd">
        <g id="018-swiss-knife" transform="translate(8.000000, 5.000000)" fill="#FFFFFF">
            <path d="M13.4623757,32.7639779 L29.6199448,16.5137569 C29.7928177,16.340221 29.8795028,16.1129834 29.8795028,15.8864088 C29.8795028,15.6596685 29.7928177,15.4324309 29.6199448,15.258895 C24.9071271,10.5475691 16.3103867,19.0342541 15.9472376,19.3974033 L13.3316022,22.0125414 C13.3316022,22.0125414 12.9159116,22.3919337 12.9159116,22.9823204 L12.9159116,32.4609945 C12.9159116,32.4609945 12.9183978,33.3077901 13.4623757,32.7639779 Z" id="Fill-1"></path>
            <path d="M10.9412155,32.4454144 L10.9412155,4.4758011 C10.9412155,2.01414365 8.92690608,0 6.46541436,0 L4.55668508,0 C2.09453039,0 0.079558011,2.01414365 0.079558011,4.4758011 L0.079558011,32.4454144 C0.079558011,34.9069061 2.09453039,36.9212155 4.55668508,36.9212155 L6.46541436,36.9212155 C8.92690608,36.9212155 10.9412155,34.9069061 10.9412155,32.4454144 Z M4.39160221,4.34370166 C4.39160221,3.72596685 4.8921547,3.22491713 5.51104972,3.22491713 C6.12878453,3.22491713 6.62983425,3.72596685 6.62983425,4.34370166 C6.62983425,4.96143646 6.12878453,5.46248619 5.51104972,5.46248619 C4.8921547,5.46248619 4.39160221,4.96143646 4.39160221,4.34370166 Z M4.52303867,20.6320442 L4.52303867,19.4479558 L3.33895028,19.4479558 C2.79314917,19.4479558 2.35093923,19.0057459 2.35093923,18.4606077 C2.35093923,17.9154696 2.79314917,17.4739227 3.33895028,17.4739227 L4.52303867,17.4739227 L4.52303867,16.2890055 C4.52303867,15.7432044 4.96458564,15.3016575 5.51104972,15.3016575 C6.05552486,15.3016575 6.49839779,15.7432044 6.49839779,16.2890055 L6.49839779,17.4739227 L7.68265193,17.4739227 C8.22779006,17.4739227 8.67049724,17.9161326 8.67049724,18.4606077 C8.67049724,19.0057459 8.22779006,19.4479558 7.68265193,19.4479558 L6.49839779,19.4479558 L6.49839779,20.6320442 C6.49839779,21.1778453 6.05552486,21.619558 5.51104972,21.619558 C4.96458564,21.619558 4.52303867,21.1778453 4.52303867,20.6320442 Z" id="Fill-2"></path>
        </g>
    </g>
</svg>